<svg xmlns="http://www.w3.org/2000/svg" viewBox="0 0 296.28 15.03">
  <path class="cls-1" d="M1.7,4.26c0-1.47.82-2.27,2.58-2.27,1.53,0,3.11.86,3.51,3.36.04.1.29.08.27-.06-.13-1.11-.17-2.25-.17-3.36-.78-.21-2.02-.48-3.36-.48C1.93,1.45.21,2.81.21,4.93c0,3.99,6.76,3.78,6.76,7.12,0,1.62-1.13,2.39-2.6,2.39-1.89,0-3.63-.86-4.07-3.88-.02-.15-.29-.13-.29.04v.04c.13,1.24.21,2.54.21,3.78.94.29,2.29.61,3.91.61,2.56,0,4.33-1.2,4.33-3.57,0-4.24-6.74-3.88-6.74-7.2Z"/>
  <path class="cls-1" d="M18.9,13.48c-.9.73-1.62.59-1.62-.52,0-.5.06-2.06.06-4.12,0-1.83-.78-2.77-2.31-2.77-1.13,0-3.7,1.93-3.7,3.04,0,.46,1.13.27,1.7-.06-.17-1.3.36-1.91,1.47-1.91.97,0,1.41.61,1.41,2.14,0,.36,0,.76-.02,1.15-3.55,1.03-4.98,1.7-4.98,2.77s.86,1.83,2.06,1.83c.99,0,1.99-.5,2.81-1.43.06.99.67,1.41,1.36,1.41.73,0,1.57-.48,1.83-1.26.02-.06.02-.08.02-.1,0-.08-.04-.15-.1-.17ZM15.79,13.06c-.59.52-1.43.86-2.14.86-.8,0-1.22-.4-1.22-1.07,0-.61.67-1.01,3.44-1.95-.02.82-.06,1.62-.08,2.16Z"/>
  <path class="cls-1" d="M30.38,14.63c-1.13-.19-1.24-.31-1.24-2.86v-2.75c0-1.87-.86-2.96-2.35-2.96-.97,0-2.35.71-3.51,1.64.04-.44.1-.92.15-1.3,0-.19-.06-.25-.29-.19-.65.13-1.62.48-2.5.86-.02.02-.02.04-.02.08,0,.06.02.15.08.15,1.13-.17,1.22.08,1.22,2.67v1.81c0,2.54-.08,2.69-1.26,2.86-.02,0-.04.04-.04.1s.04.15.08.15c1.32-.13,2.69-.13,3.97,0,.08,0,.13-.23.04-.25-1.36-.17-1.43-.31-1.43-2.86v-1.81c0-.65.04-1.39.08-1.89,1.03-.57,1.95-.9,2.86-.9.97,0,1.55.78,1.55,2.48v1.41c0,3.15-.23,3.28-1.53,3.57-.08.02-.04.25.04.25,1.28-.13,2.75-.13,4.07,0,.04,0,.08-.08.08-.15,0-.04-.02-.1-.06-.1Z"/>
  <path class="cls-1" d="M38.03,6.07c-1.2,0-2.14.76-3.09,1.81.02-.59.06-1.11.08-1.47.04-.19-.02-.25-.27-.19-.65.1-1.72.46-2.6.86-.02.02-.02.04-.02.08,0,.06.02.15.06.15,1.2-.15,1.32.1,1.32,3.07v1.41c0,2.54-.08,2.69-1.26,2.86-.06.02-.04.25.04.25,1.32-.15,2.81-.15,4.49,0,.08,0,.13-.23.04-.25-1.78-.23-1.95-.31-1.95-2.86v-1.3c0-.63.02-1.3.04-1.95.65-.55,1.15-.8,1.57-.8.57,0,1.09.25,1.49.25.46,0,.88-.63.88-1.15,0-.4-.23-.76-.84-.76Z"/>
  <path class="cls-1" d="M42.67,3.38c.63,0,1.11-.5,1.11-1.13s-.48-1.11-1.11-1.11-1.15.48-1.15,1.11.5,1.13,1.15,1.13Z"/>
  <path class="cls-1" d="M44.88,14.63c-1.28-.19-1.41-.31-1.41-2.86v-1.32c0-1.49.08-3.21.15-4.07.02-.23-.04-.27-.27-.23-.65.13-1.72.48-2.6.88-.06.04-.04.25.04.23,1.2-.15,1.32.13,1.32,3.04v1.47c0,2.54-.1,2.67-1.43,2.86-.04,0-.04.04-.04.08,0,.08.04.17.08.17,1.34-.13,2.79-.13,4.12,0,.06,0,.13-.08.13-.15,0-.04-.02-.1-.08-.1Z"/>
  <path class="cls-1" d="M51.32,6.07c-2.58,0-4.35,1.99-4.35,4.66s1.45,4.3,4.18,4.3,4.41-1.99,4.41-4.66-1.49-4.3-4.24-4.3ZM51.41,14.49c-1.74,0-2.83-1.6-2.83-4.09,0-2.16,1.11-3.74,2.54-3.74,1.74,0,2.81,1.57,2.81,4.03,0,2.18-1.09,3.8-2.52,3.8Z"/>
  <path class="cls-1" d="M70.96,12.87c-.55.57-1.53.99-2.52.99-1.89,0-2.92-1.41-2.92-3.55s1.13-3.65,2.56-3.65c.92,0,1.26,1.97,2.14,1.97s1.13-1.32.19-1.99c-.46-.31-1.28-.57-2.16-.57-2.44,0-4.35,2.04-4.35,4.68s1.43,4.28,3.91,4.28c1.26,0,2.9-.76,3.32-1.91.02-.04.02-.08.02-.1,0-.1-.08-.15-.19-.15Z"/>
  <path class="cls-1" d="M82.88,14.63c-1.15-.19-1.26-.31-1.26-2.86v-2.75c0-1.87-.84-2.96-2.33-2.96-.99,0-2.33.71-3.51,1.62v-3.38c0-1.49.06-3.21.17-4.05,0-.19-.04-.25-.17-.25-.04,0-.13.02-.23.04-.67.15-1.6.44-2.48.86-.04.02-.06.04-.06.08,0,.08.04.1.1.1,1.15-.13,1.3.15,1.3,3.09v7.6c0,2.54-.1,2.69-1.28,2.86-.06.02-.04.25.04.25,1.32-.13,2.69-.13,3.99,0,.06,0,.1-.23.02-.25-1.34-.17-1.41-.31-1.41-2.86v-3.65c1.05-.59,2.04-.94,2.94-.94s1.53.78,1.53,2.48v1.41c0,3.15-.19,3.28-1.51,3.57-.1.02-.04.25.04.25,1.28-.13,2.73-.13,4.05,0,.04,0,.08-.08.08-.17,0-.04,0-.08-.04-.08Z"/>
  <path class="cls-1" d="M92.75,13.48c-.9.73-1.62.59-1.62-.52,0-.5.06-2.06.06-4.12,0-1.83-.78-2.77-2.31-2.77-1.13,0-3.7,1.93-3.7,3.04,0,.46,1.13.27,1.7-.06-.17-1.3.36-1.91,1.47-1.91.97,0,1.41.61,1.41,2.14,0,.36,0,.76-.02,1.15-3.55,1.03-4.98,1.7-4.98,2.77s.86,1.83,2.06,1.83c.99,0,1.99-.5,2.81-1.43.06.99.67,1.41,1.36,1.41.73,0,1.57-.48,1.83-1.26.02-.06.02-.08.02-.1,0-.08-.04-.15-.1-.17ZM89.65,13.06c-.59.52-1.43.86-2.14.86-.8,0-1.22-.4-1.22-1.07,0-.61.67-1.01,3.44-1.95-.02.82-.06,1.62-.08,2.16Z"/>
  <path class="cls-1" d="M100.29,6.07c-1.2,0-2.14.76-3.09,1.81.02-.59.06-1.11.08-1.47.04-.19-.02-.25-.27-.19-.65.1-1.72.46-2.6.86-.02.02-.02.04-.02.08,0,.06.02.15.06.15,1.2-.15,1.32.1,1.32,3.07v1.41c0,2.54-.08,2.69-1.26,2.86-.06.02-.04.25.04.25,1.32-.15,2.81-.15,4.49,0,.08,0,.13-.23.04-.25-1.78-.23-1.95-.31-1.95-2.86v-1.3c0-.63.02-1.3.04-1.95.65-.55,1.15-.8,1.57-.8.57,0,1.09.25,1.49.25.46,0,.88-.63.88-1.15,0-.4-.23-.76-.84-.76Z"/>
  <path class="cls-1" d="M111.04,13.48c-.9.73-1.62.59-1.62-.52,0-.5.06-2.06.06-4.12,0-1.83-.78-2.77-2.31-2.77-1.13,0-3.7,1.93-3.7,3.04,0,.46,1.13.27,1.7-.06-.17-1.3.36-1.91,1.47-1.91.97,0,1.41.61,1.41,2.14,0,.36,0,.76-.02,1.15-3.55,1.03-4.98,1.7-4.98,2.77s.86,1.83,2.06,1.83c.99,0,1.99-.5,2.81-1.43.06.99.67,1.41,1.36,1.41.73,0,1.57-.48,1.83-1.26.02-.06.02-.08.02-.1,0-.08-.04-.15-.1-.17ZM107.94,13.06c-.59.52-1.43.86-2.14.86-.8,0-1.22-.4-1.22-1.07,0-.61.67-1.01,3.44-1.95-.02.82-.06,1.62-.08,2.16Z"/>
  <path class="cls-1" d="M119.99,12.87c-.55.57-1.53.99-2.52.99-1.89,0-2.92-1.41-2.92-3.55s1.13-3.65,2.56-3.65c.92,0,1.26,1.97,2.14,1.97s1.13-1.32.19-1.99c-.46-.31-1.28-.57-2.16-.57-2.44,0-4.35,2.04-4.35,4.68s1.43,4.28,3.91,4.28c1.26,0,2.9-.76,3.32-1.91.02-.04.02-.08.02-.1,0-.1-.08-.15-.19-.15Z"/>
  <path class="cls-1" d="M127.07,7.22c.4,0,.71-.42.84-.9h-3.19l.13-1.66c0-.08-.04-.13-.1-.13-.04,0-.08.02-.13.06-.55.84-1.6,1.78-2.48,2.39-.04.02-.04.04-.04.08,0,.06.04.15.08.15h1.15v5.48c0,1.49.71,2.33,1.99,2.33,1.03,0,2.1-.78,2.5-1.55.08-.13,0-.25-.13-.27-.42.38-.94.57-1.55.57-1.01,0-1.45-.52-1.45-1.81v-4.75h2.37Z"/>
  <path class="cls-1" d="M137.23,12.87c-.67.65-1.68.99-2.56.99-1.93,0-3-1.3-3-3.59,0-.27.02-.55.06-.8h5.58c.25-2.1-.88-3.4-3.11-3.4s-4.14,2.08-4.14,4.68,1.47,4.28,3.93,4.28c1.3,0,2.98-.73,3.4-1.91.02-.04.02-.06.02-.08,0-.13-.08-.17-.19-.17ZM134.08,6.66c1.01,0,1.74.78,1.74,1.64,0,.36-.23.5-.71.52l-3.28.08c.36-1.36,1.22-2.25,2.25-2.25Z"/>
  <path class="cls-1" d="M145.46,6.07c-1.2,0-2.14.76-3.09,1.81.02-.59.06-1.11.08-1.47.04-.19-.02-.25-.27-.19-.65.1-1.72.46-2.6.86-.02.02-.02.04-.02.08,0,.06.02.15.06.15,1.2-.15,1.32.1,1.32,3.07v1.41c0,2.54-.08,2.69-1.26,2.86-.06.02-.04.25.04.25,1.32-.15,2.81-.15,4.49,0,.08,0,.13-.23.04-.25-1.78-.23-1.95-.31-1.95-2.86v-1.3c0-.63.02-1.3.04-1.95.65-.55,1.15-.8,1.57-.8.57,0,1.09.25,1.49.25.46,0,.88-.63.88-1.15,0-.4-.23-.76-.84-.76Z"/>
  <path class="cls-1" d="M150,7.87c0-.78.63-1.22,1.49-1.22.92,0,1.85.65,2.25,2.08.04.13.27.1.27-.06l-.08-2.33c-.59-.15-1.45-.27-2.14-.27-1.7,0-3.11.9-3.11,2.25,0,2.96,4.39,2.56,4.39,4.77,0,.82-.63,1.36-1.49,1.36-1.07,0-2.37-.78-2.83-2.65-.04-.15-.31-.1-.31.06l.21,2.67c.69.29,1.72.5,2.67.5,1.83,0,3.09-.94,3.09-2.44,0-3.09-4.39-2.69-4.39-4.72Z"/>
  <polygon class="cls-1" points="176.27 5.7 172.4 9.56 168.54 5.7 168 6.22 171.88 10.09 168 13.99 168.54 14.47 172.4 10.61 176.27 14.47 176.81 13.99 172.93 10.09 176.81 6.22 176.27 5.7"/>
  <path class="cls-1" d="M192.08,7.87c0-.78.63-1.22,1.49-1.22.92,0,1.85.65,2.25,2.08.04.13.27.1.27-.06l-.08-2.33c-.59-.15-1.45-.27-2.14-.27-1.7,0-3.11.9-3.11,2.25,0,2.96,4.39,2.56,4.39,4.77,0,.82-.63,1.36-1.49,1.36-1.07,0-2.37-.78-2.83-2.65-.04-.15-.31-.1-.31.06l.21,2.67c.69.29,1.72.5,2.67.5,1.83,0,3.09-.94,3.09-2.44,0-3.09-4.39-2.69-4.39-4.72Z"/>
  <path class="cls-1" d="M203.55,7.22c.4,0,.71-.42.84-.9h-3.19l.13-1.66c0-.08-.04-.13-.1-.13-.04,0-.08.02-.13.06-.55.84-1.6,1.78-2.48,2.39-.04.02-.04.04-.04.08,0,.06.04.15.08.15h1.15v5.48c0,1.49.71,2.33,1.99,2.33,1.03,0,2.1-.78,2.5-1.55.08-.13,0-.25-.13-.27-.42.38-.94.57-1.55.57-1.01,0-1.45-.52-1.45-1.81v-4.75h2.37Z"/>
  <path class="cls-1" d="M215.87,14.24c-1.09.04-1.39-.21-1.39-2.92v-.86c0-1.49.08-3.21.15-4.07.02-.19,0-.25-.13-.25l-.23.04c-.61.13-1.62.46-2.52.86-.06.04-.02.25.06.23,1.18-.15,1.28.13,1.28,3.04v1.09l-.02,1.66c-1.01.52-1.89.84-2.75.84-.99,0-1.57-.76-1.57-2.44v-1.01c0-1.49.06-3.21.17-4.07,0-.19-.02-.25-.15-.25-.04,0-.15.02-.25.04-.59.13-1.6.46-2.46.86-.04.02-.06.06-.06.1,0,.06.04.15.08.13,1.18-.15,1.28.13,1.28,3.04v1.76c0,1.87.88,2.96,2.39,2.96.92,0,2.25-.67,3.38-1.55-.02.44-.04.99-.08,1.34-.02.15.02.21.13.21.04,0,.08,0,.15-.02.71-.21,1.76-.4,2.58-.59.02,0,.04-.02.04-.06,0-.08-.04-.13-.08-.13Z"/>
  <path class="cls-1" d="M227.15,14.24c-1.09.04-1.39-.21-1.39-2.92v-7.01c0-1.49.1-3.21.21-4.05.02-.19-.02-.25-.15-.25-.04,0-.15.02-.23.04-.59.13-1.78.44-2.69.86-.06.02-.04.21.06.19,1.24-.13,1.43.15,1.43,3.09v2.25c-.59-.23-1.28-.36-1.95-.36-2.73,0-4.6,1.99-4.6,4.68s1.39,4.28,3.49,4.28c1.05,0,2.25-.63,3.09-1.55,0,.44-.02.99-.06,1.34-.02.15.02.21.1.21.04,0,.08,0,.13-.02.73-.21,1.68-.38,2.52-.57.1-.02.13-.04.13-.08,0-.06-.04-.13-.08-.13ZM224.4,11.4l-.02,1.6c-.78.57-1.64.88-2.37.88-1.55,0-2.56-1.39-2.56-3.51s1.18-3.72,2.86-3.72c.71,0,1.49.31,2.1.86v3.88Z"/>
  <path class="cls-1" d="M230.89,3.38c.63,0,1.11-.5,1.11-1.13s-.48-1.11-1.11-1.11-1.15.48-1.15,1.11.5,1.13,1.15,1.13Z"/>
  <path class="cls-1" d="M233.1,14.63c-1.28-.19-1.41-.31-1.41-2.86v-1.32c0-1.49.08-3.21.15-4.07.02-.23-.04-.27-.27-.23-.65.13-1.72.48-2.6.88-.06.04-.04.25.04.23,1.2-.15,1.32.13,1.32,3.04v1.47c0,2.54-.1,2.67-1.43,2.86-.04,0-.04.04-.04.08,0,.08.04.17.08.17,1.34-.13,2.79-.13,4.12,0,.06,0,.13-.08.13-.15,0-.04-.02-.1-.08-.1Z"/>
  <path class="cls-1" d="M239.54,6.07c-2.58,0-4.35,1.99-4.35,4.66s1.45,4.3,4.18,4.3,4.41-1.99,4.41-4.66-1.49-4.3-4.24-4.3ZM239.63,14.49c-1.74,0-2.83-1.6-2.83-4.09,0-2.16,1.11-3.74,2.54-3.74,1.74,0,2.81,1.57,2.81,4.03,0,2.18-1.09,3.8-2.52,3.8Z"/>
  <path class="cls-1" d="M263.59,10.48c-.63,2.96-1.95,3.97-4.07,3.97-3.65,0-5.42-2.65-5.42-6.49,0-3.38,1.91-5.9,5.04-5.9,2.23,0,3.53,1.34,4.16,3.86.04.15.29.13.27-.06-.13-1.13-.23-2.6-.27-3.65-.9-.31-2.33-.76-3.84-.76-4.51,0-7.2,2.92-7.2,6.97s2.08,6.61,6.91,6.61c1.99,0,3.49-.44,4.47-.86.04-1.15.13-2.58.25-3.59v-.04c0-.19-.25-.21-.29-.06Z"/>
  <path class="cls-1" d="M276.33,10.85c-.78,2.46-1.68,3.42-4.6,3.42-1.83,0-2.2-.44-2.2-2.58v-6.91c0-2.58.15-2.73,1.74-2.94.08-.02.04-.25-.04-.25-1.66.1-3.32.1-4.85,0-.04,0-.08.08-.08.15s.02.1.04.1c1.49.21,1.62.36,1.62,2.94v6.91c0,2.56-.13,2.73-1.62,2.94-.02,0-.04.04-.04.1s.04.15.08.15c2.46-.06,5.9-.08,9.76,0,.13-1.2.27-2.79.46-3.97v-.04c0-.15-.25-.17-.27-.02Z"/>
  <path class="cls-1" d="M283.77,1.85s.04-.04.04-.08c0-.06-.04-.17-.08-.17-1.6.13-3.42.13-5.02,0-.06,0-.1.08-.1.15s.02.1.06.1c1.57.21,1.76.38,1.76,2.96v6.89c0,2.54-.19,2.73-1.76,2.94-.04,0-.04.04-.04.08,0,.06.04.17.08.17,1.6-.13,3.42-.13,5.02,0,.04,0,.08-.08.08-.17,0-.04,0-.08-.04-.08-1.6-.21-1.78-.4-1.78-2.94v-6.89c0-2.58.19-2.75,1.78-2.96Z"/>
  <path class="cls-1" d="M289.94,8.86c-.1,0-.1.21,0,.21,4.03.38,6.34-1.39,6.34-3.99,0-2.41-1.57-3.57-4.83-3.57-.97,0-2.71.15-5.42.08-.04,0-.08.08-.08.15s.02.1.04.1c1.49.21,1.62.36,1.62,2.94v6.91c0,2.54-.13,2.73-1.62,2.94-.02,0-.04.04-.04.1s.04.15.08.15c1.49-.15,3.25-.15,5.38,0,.08,0,.13-.23.04-.25-2.1-.25-2.27-.4-2.27-2.94v-6.91c0-1.11.04-1.93.08-2.56.55-.1,1.18-.17,1.85-.17,2.04,0,3.36,1.28,3.36,3.25,0,2.14-1.68,3.55-4.54,3.55Z"/>
</svg>
