<?xml version="1.0" encoding="utf-8"?>
<svg xmlns="http://www.w3.org/2000/svg" xmlns:xlink="http://www.w3.org/1999/xlink" viewBox="0 0 22 22">
<defs>
 <style>
.cls-1 { fill: none; }
.cls-2 { fill: #ff2e79; }
.cls-3 { clip-path: url(#sid2); }
</style>
  <clipPath id="sid2">
   <rect class="cls-1" width="22" height="22"/>
  </clipPath>
 </defs>
 <g class="cls-3">
  <path class="cls-2" d="M14.54,6.67c-.65,0-1.28.14-1.87.39-1.06.46-2.3.46-3.35,0-.59-.25-1.21-.39-1.87-.39-3.18,0-6.34,3.28-5.76,7.26.72,4.93,3.33,8.02,6.51,8.02.65,0,1.45-.43,2.08-.57.48-.11.83-.18,2.03.33.59.25.83.24,1.48.24,3.18,0,5.8-3.75,6.51-8.02.66-3.96-2.58-7.26-5.76-7.26Z"/>
  <path class="cls-2" d="M15.51,3.83c-1.85,1.17-4.43.61-4.43.61,0,0,.42-2.47,2.26-3.64s4.43-.61,4.43-.61c0,0-.42,2.47-2.26,3.64Z"/>
 </g>
</svg>
