<?xml version="1.0" encoding="utf-8"?>
<svg xmlns="http://www.w3.org/2000/svg" xmlns:xlink="http://www.w3.org/1999/xlink" viewBox="0 0 22 22">
<defs>
 <style>
.cls-1 { fill: none; }
.cls-2 { fill: #ff2e79; }
.cls-3 { clip-path: url(#sid2); }
</style>
  <clipPath id="sid2">
   <rect class="cls-1" width="22" height="22"/>
  </clipPath>
 </defs>
 <g class="cls-3">
  <path class="cls-2" d="M20.38,6.96c-.03-.33-.2-.63-.47-.82l-1.66-1.16-.42-2.4c-.05-.29-.22-.56-.46-.73-.24-.17-.55-.24-.84-.19l-2.4.43-1.66-1.16c-.27-.19-.61-.25-.93-.17-.32.08-.59.31-.73.61-.03.07-.55,1.2-.54,2.59-2.35-.72-4.46-.54-5.72.62-1.94,1.78-3.13,5.67-2.88,9.45.19,2.88,1.2,5.09,2.83,6.23,1.63,1.14,4.05,1.33,6.82.52,3.64-1.06,6.89-3.5,7.9-5.94.66-1.59.1-3.63-1.38-5.6,1.31-.47,2.19-1.34,2.25-1.39.23-.24.35-.56.32-.89ZM6.35,15.32c-.42.6-1.26.75-1.87.32-.6-.42-.75-1.26-.33-1.86.42-.6,1.26-.75,1.86-.33.61.43.76,1.26.34,1.87ZM6.37,10.8c-.39.56-1.16.69-1.72.3-.56-.39-.69-1.16-.3-1.72.39-.56,1.16-.69,1.72-.3.56.39.69,1.16.3,1.72ZM10.6,9.22c-.42.59-1.24.74-1.84.32-.6-.42-.74-1.24-.32-1.84.42-.59,1.24-.74,1.84-.32.6.42.75,1.25.33,1.84ZM12.74,5.01c-.21-.42-.26-.88-.24-1.31l.71.5c.25.17.55.24.84.19l1.75-.31.3,1.75c.05.29.22.56.46.73l.71.5c-.39.17-.84.29-1.3.23-.48-.42-.99-.84-1.55-1.23-.56-.39-1.13-.74-1.69-1.04Z"/>
 </g>
</svg>
