<svg xmlns="http://www.w3.org/2000/svg" viewBox="0 0 409.26 21.48">
  <path class="cls-1" d="M.29,20.61c0-1.77-.12-3.63-.29-5.4v-.06c0-.24.38-.27.41-.06.61,4.32,3.02,5.55,5.63,5.55,2.03,0,3.6-1.11,3.6-3.42C9.63,12.45.29,12.75.29,7.05.29,4.02,2.67,2.07,6.27,2.07c1.86,0,3.57.39,4.64.69,0,1.59.06,3.21.23,4.8.03.21-.32.24-.38.09-.55-3.57-2.73-4.8-4.84-4.8-2.44,0-3.57,1.14-3.57,3.24,0,4.74,9.31,4.23,9.31,10.29,0,3.39-2.44,5.1-5.97,5.1-2.23,0-4.09-.45-5.4-.87Z"/>
  <path class="cls-1" d="M26.25,19.5s0,.06-.03.15c-.35,1.11-1.51,1.8-2.52,1.8-.96,0-1.8-.6-1.89-2.01-1.13,1.32-2.52,2.04-3.89,2.04-1.65,0-2.84-1.11-2.84-2.61s1.97-2.49,6.88-3.96c.03-.57.03-1.14.03-1.65,0-2.19-.61-3.06-1.94-3.06-1.54,0-2.26.87-2.03,2.73-.78.48-2.35.75-2.35.09,0-1.59,3.54-4.35,5.11-4.35,2.12,0,3.19,1.35,3.19,3.96,0,2.94-.09,5.16-.09,5.88,0,1.59.99,1.8,2.23.75.09.03.15.12.15.24ZM21.81,18.66c.03-.78.09-1.92.12-3.09-3.83,1.35-4.76,1.92-4.76,2.79,0,.96.58,1.53,1.68,1.53.99,0,2.15-.48,2.96-1.23Z"/>
  <path class="cls-1" d="M42.06,21.06c0,.09-.06.21-.12.21-1.83-.18-3.86-.18-5.63,0-.12,0-.17-.33-.06-.36,1.8-.42,2.12-.6,2.12-5.1v-2.01c0-2.43-.81-3.54-2.15-3.54-1.25,0-2.52.48-3.95,1.29-.06.72-.12,1.77-.12,2.7v2.58c0,3.63.09,3.84,1.97,4.08.12.03.06.36-.06.36-1.77-.18-3.66-.18-5.48,0-.06,0-.12-.12-.12-.21s.03-.15.06-.15c1.62-.24,1.74-.45,1.74-4.08v-2.58c0-3.69-.12-4.05-1.68-3.81-.09,0-.12-.12-.12-.21,0-.06,0-.09.03-.12,1.22-.54,2.55-1.05,3.45-1.23.32-.09.41,0,.41.27-.06.54-.15,1.23-.2,1.86,1.6-1.32,3.51-2.34,4.84-2.34,2.06,0,3.25,1.56,3.25,4.23v3.93c0,3.63.15,3.81,1.71,4.08.06,0,.09.09.09.15Z"/>
  <path class="cls-1" d="M53.69,9.75c0,.75-.58,1.65-1.22,1.65-.55,0-1.28-.36-2.06-.36-.58,0-1.28.36-2.17,1.14-.03.93-.06,1.89-.06,2.79v1.86c0,3.63.23,3.75,2.7,4.08.12.03.06.36-.06.36-2.32-.21-4.38-.21-6.21,0-.12,0-.15-.33-.06-.36,1.62-.24,1.74-.45,1.74-4.08v-2.01c0-4.23-.17-4.59-1.83-4.38-.06,0-.09-.12-.09-.21,0-.06,0-.09.03-.12,1.22-.57,2.7-1.08,3.6-1.23.35-.09.43,0,.38.27-.03.51-.09,1.26-.12,2.1,1.31-1.5,2.61-2.58,4.26-2.58.84,0,1.16.51,1.16,1.08Z"/>
  <path class="cls-1" d="M62.1,21.06c0,.09-.09.21-.17.21-1.83-.18-3.83-.18-5.69,0-.06,0-.12-.12-.12-.24,0-.06,0-.12.06-.12,1.83-.27,1.97-.45,1.97-4.08v-2.1c0-4.17-.17-4.56-1.83-4.35-.12.03-.14-.27-.06-.33,1.22-.57,2.7-1.08,3.6-1.26.32-.06.41,0,.38.33-.09,1.23-.2,3.69-.2,5.82v1.89c0,3.63.17,3.81,1.94,4.08.09,0,.12.09.12.15ZM57.35,3.21c0-.9.7-1.59,1.59-1.59s1.54.69,1.54,1.59-.67,1.62-1.54,1.62-1.59-.72-1.59-1.62Z"/>
  <path class="cls-1" d="M64.89,15.33c0-3.81,2.44-6.66,6-6.66,3.8,0,5.86,2.19,5.86,6.15s-2.49,6.66-6.09,6.66-5.77-2.22-5.77-6.15ZM74.49,15.27c0-3.51-1.48-5.76-3.89-5.76-1.97,0-3.51,2.25-3.51,5.34,0,3.57,1.51,5.85,3.92,5.85,1.97,0,3.48-2.31,3.48-5.43Z"/>
  <path class="cls-1" d="M93.66,21.48c-3.42,0-5.4-2.49-5.4-6.12s2.64-6.69,6-6.69c1.22,0,2.35.36,2.99.81,1.31.96.99,2.85-.26,2.85s-1.68-2.82-2.96-2.82c-1.97,0-3.54,2.28-3.54,5.22s1.42,5.07,4.03,5.07c1.36,0,2.73-.6,3.48-1.41.14,0,.26.06.26.21,0,.03,0,.09-.03.15-.58,1.65-2.84,2.73-4.58,2.73Z"/>
  <path class="cls-1" d="M114.55,21.03c0,.12-.06.24-.12.24-1.83-.18-3.83-.18-5.6,0-.12,0-.2-.33-.06-.36,1.83-.42,2.09-.6,2.09-5.1v-2.01c0-2.43-.81-3.54-2.12-3.54s-2.61.51-4.06,1.35v5.22c0,3.63.09,3.84,1.94,4.08.12.03.06.36-.03.36-1.8-.18-3.68-.18-5.51,0-.12,0-.15-.33-.06-.36,1.62-.24,1.77-.45,1.77-4.08V5.97c0-4.2-.2-4.59-1.8-4.41-.09,0-.14-.03-.14-.15,0-.06.03-.09.09-.12,1.22-.6,2.49-1.02,3.42-1.23.14-.03.26-.06.32-.06.17,0,.23.09.23.36-.14,1.2-.23,3.66-.23,5.79v4.83c1.62-1.29,3.48-2.31,4.84-2.31,2.06,0,3.22,1.56,3.22,4.23v3.93c0,3.63.15,3.81,1.74,4.08.06,0,.06.06.06.12Z"/>
  <path class="cls-1" d="M128.27,19.5s0,.06-.03.15c-.35,1.11-1.51,1.8-2.52,1.8-.96,0-1.8-.6-1.89-2.01-1.13,1.32-2.52,2.04-3.89,2.04-1.65,0-2.84-1.11-2.84-2.61s1.97-2.49,6.88-3.96c.03-.57.03-1.14.03-1.65,0-2.19-.61-3.06-1.94-3.06-1.54,0-2.26.87-2.03,2.73-.78.48-2.35.75-2.35.09,0-1.59,3.54-4.35,5.11-4.35,2.12,0,3.19,1.35,3.19,3.96,0,2.94-.09,5.16-.09,5.88,0,1.59.99,1.8,2.23.75.09.03.15.12.15.24ZM123.83,18.66c.03-.78.09-1.92.12-3.09-3.83,1.35-4.76,1.92-4.76,2.79,0,.96.58,1.53,1.68,1.53.99,0,2.15-.48,2.96-1.23Z"/>
  <path class="cls-1" d="M139.7,9.75c0,.75-.58,1.65-1.22,1.65-.55,0-1.28-.36-2.06-.36-.58,0-1.28.36-2.17,1.14-.03.93-.06,1.89-.06,2.79v1.86c0,3.63.23,3.75,2.7,4.08.12.03.06.36-.06.36-2.32-.21-4.38-.21-6.21,0-.12,0-.15-.33-.06-.36,1.62-.24,1.74-.45,1.74-4.08v-2.01c0-4.23-.17-4.59-1.83-4.38-.06,0-.09-.12-.09-.21,0-.06,0-.09.03-.12,1.22-.57,2.7-1.08,3.6-1.23.35-.09.43,0,.38.27-.03.51-.09,1.26-.12,2.1,1.31-1.5,2.61-2.58,4.26-2.58.84,0,1.16.51,1.16,1.08Z"/>
  <path class="cls-1" d="M153.54,19.5s0,.06-.03.15c-.35,1.11-1.51,1.8-2.52,1.8-.96,0-1.8-.6-1.89-2.01-1.13,1.32-2.52,2.04-3.89,2.04-1.65,0-2.84-1.11-2.84-2.61s1.97-2.49,6.88-3.96c.03-.57.03-1.14.03-1.65,0-2.19-.61-3.06-1.94-3.06-1.54,0-2.26.87-2.03,2.73-.78.48-2.35.75-2.35.09,0-1.59,3.54-4.35,5.11-4.35,2.12,0,3.19,1.35,3.19,3.96,0,2.94-.09,5.16-.09,5.88,0,1.59.99,1.8,2.23.75.09.03.15.12.15.24ZM149.1,18.66c.03-.78.09-1.92.12-3.09-3.83,1.35-4.76,1.92-4.76,2.79,0,.96.58,1.53,1.68,1.53.99,0,2.15-.48,2.96-1.23Z"/>
  <path class="cls-1" d="M161.4,21.48c-3.42,0-5.4-2.49-5.4-6.12s2.64-6.69,6-6.69c1.22,0,2.35.36,2.99.81,1.31.96.99,2.85-.26,2.85s-1.68-2.82-2.96-2.82c-1.97,0-3.54,2.28-3.54,5.22s1.42,5.07,4.03,5.07c1.36,0,2.73-.6,3.48-1.41.14,0,.26.06.26.21,0,.03,0,.09-.03.15-.58,1.65-2.84,2.73-4.58,2.73Z"/>
  <path class="cls-1" d="M176.57,19.26c-.55,1.11-2.03,2.22-3.45,2.22-1.77,0-2.76-1.2-2.76-3.33v-7.83h-1.6c-.06,0-.12-.12-.12-.21,0-.06,0-.09.06-.12,1.22-.87,2.67-2.22,3.42-3.42.06-.06.12-.09.17-.09.09,0,.14.06.14.18l-.17,2.37h4.41c-.17.69-.61,1.29-1.16,1.29h-3.28v6.78c0,1.83.61,2.58,2,2.58.84,0,1.57-.27,2.15-.81.17.03.29.21.17.39Z"/>
  <path class="cls-1" d="M189.82,18.63s0,.06-.03.12c-.58,1.68-2.9,2.73-4.7,2.73-3.39,0-5.42-2.34-5.42-6.12s2.52-6.69,5.71-6.69,4.64,1.86,4.29,4.86h-7.72c-.06.36-.09.75-.09,1.14,0,3.27,1.48,5.13,4.15,5.13,1.22,0,2.61-.48,3.54-1.41.15,0,.26.06.26.24ZM182.11,12.72l4.53-.12c.67-.03.99-.24.99-.75,0-1.23-1.02-2.34-2.41-2.34s-2.61,1.26-3.1,3.21Z"/>
  <path class="cls-1" d="M202.09,9.75c0,.75-.58,1.65-1.22,1.65-.55,0-1.28-.36-2.06-.36-.58,0-1.28.36-2.17,1.14-.03.93-.06,1.89-.06,2.79v1.86c0,3.63.23,3.75,2.7,4.08.12.03.06.36-.06.36-2.32-.21-4.38-.21-6.21,0-.12,0-.15-.33-.06-.36,1.62-.24,1.74-.45,1.74-4.08v-2.01c0-4.23-.17-4.59-1.83-4.38-.06,0-.09-.12-.09-.21,0-.06,0-.09.03-.12,1.22-.57,2.7-1.08,3.6-1.23.35-.09.43,0,.38.27-.03.51-.09,1.26-.12,2.1,1.31-1.5,2.61-2.58,4.26-2.58.84,0,1.16.51,1.16,1.08Z"/>
  <path class="cls-1" d="M205.31,20.76l-.29-3.81c0-.24.38-.3.44-.09.64,2.67,2.44,3.78,3.92,3.78,1.19,0,2.06-.78,2.06-1.95,0-3.15-6.06-2.58-6.06-6.81,0-1.92,1.94-3.21,4.29-3.21.96,0,2.15.18,2.96.39l.12,3.33c0,.24-.32.27-.38.09-.55-2.04-1.83-2.97-3.1-2.97-1.19,0-2.06.63-2.06,1.74,0,2.91,6.06,2.34,6.06,6.75,0,2.13-1.74,3.48-4.26,3.48-1.31,0-2.73-.3-3.68-.72Z"/>
  <path class="cls-1" d="M232.05,19.84l5.37-5.58-5.37-5.52.75-.75,5.34,5.52,5.34-5.52.75.75-5.37,5.52,5.37,5.58-.75.69-5.34-5.52-5.34,5.52-.75-.69Z"/>
  <path class="cls-1" d="M263.44,20.76l-.29-3.81c0-.24.38-.3.44-.09.64,2.67,2.44,3.78,3.92,3.78,1.19,0,2.06-.78,2.06-1.95,0-3.15-6.06-2.58-6.06-6.81,0-1.92,1.94-3.21,4.29-3.21.96,0,2.15.18,2.96.39l.12,3.33c0,.24-.32.27-.38.09-.55-2.04-1.83-2.97-3.1-2.97-1.19,0-2.06.63-2.06,1.74,0,2.91,6.06,2.34,6.06,6.75,0,2.13-1.74,3.48-4.26,3.48-1.31,0-2.73-.3-3.68-.72Z"/>
  <path class="cls-1" d="M282.21,19.26c-.55,1.11-2.03,2.22-3.45,2.22-1.77,0-2.76-1.2-2.76-3.33v-7.83h-1.6c-.06,0-.12-.12-.12-.21,0-.06,0-.09.06-.12,1.22-.87,2.67-2.22,3.42-3.42.06-.06.12-.09.17-.09.09,0,.14.06.14.18l-.17,2.37h4.41c-.17.69-.61,1.29-1.16,1.29h-3.28v6.78c0,1.83.61,2.58,2,2.58.84,0,1.57-.27,2.15-.81.17.03.29.21.17.39Z"/>
  <path class="cls-1" d="M298.31,20.52c0,.06-.03.09-.06.09-1.13.27-2.58.54-3.57.84-.09.03-.15.03-.2.03-.15,0-.2-.09-.17-.3.06-.51.09-1.29.12-1.92-1.57,1.26-3.39,2.22-4.67,2.22-2.09,0-3.31-1.56-3.31-4.23v-2.52c0-4.17-.15-4.56-1.77-4.35-.06.03-.12-.09-.12-.18,0-.06.03-.12.09-.15,1.19-.57,2.58-1.05,3.39-1.23.14-.03.29-.06.35-.06.17,0,.2.09.2.36-.15,1.23-.23,3.69-.23,5.82v1.44c0,2.4.81,3.48,2.18,3.48,1.19,0,2.41-.45,3.8-1.2l.03-2.37v-1.56c0-4.17-.15-4.56-1.77-4.35-.12.03-.17-.27-.09-.33,1.25-.57,2.64-1.05,3.48-1.23l.32-.06c.17,0,.2.09.17.36-.09,1.23-.2,3.69-.2,5.82v1.23c0,3.87.41,4.23,1.92,4.17.06,0,.12.06.12.18Z"/>
  <path class="cls-1" d="M313.88,20.52c0,.06-.03.09-.17.12-1.16.27-2.46.51-3.48.81-.06.03-.12.03-.17.03-.12,0-.17-.09-.15-.3.06-.51.09-1.29.09-1.92-1.16,1.32-2.81,2.22-4.26,2.22-2.9,0-4.82-2.46-4.82-6.12,0-3.84,2.58-6.69,6.35-6.69.93,0,1.89.18,2.7.51v-3.21c0-4.2-.26-4.59-1.97-4.41-.15.03-.17-.24-.09-.27,1.25-.6,2.9-1.05,3.71-1.23.12-.03.26-.06.32-.06.17,0,.23.09.2.36-.15,1.2-.29,3.66-.29,5.79v10.02c0,3.87.41,4.23,1.91,4.17.06,0,.12.09.12.18ZM309.94,18.57l.03-2.28v-5.55c-.84-.78-1.92-1.23-2.9-1.23-2.32,0-3.94,2.25-3.94,5.31s1.39,5.01,3.54,5.01c1.01,0,2.2-.45,3.28-1.26Z"/>
  <path class="cls-1" d="M322.09,21.06c0,.09-.09.21-.17.21-1.83-.18-3.83-.18-5.69,0-.06,0-.12-.12-.12-.24,0-.06,0-.12.06-.12,1.83-.27,1.97-.45,1.97-4.08v-2.1c0-4.17-.17-4.56-1.83-4.35-.12.03-.14-.27-.06-.33,1.22-.57,2.7-1.08,3.6-1.26.32-.06.41,0,.38.33-.09,1.23-.2,3.69-.2,5.82v1.89c0,3.63.17,3.81,1.94,4.08.09,0,.12.09.12.15ZM317.34,3.21c0-.9.7-1.59,1.59-1.59s1.54.69,1.54,1.59-.67,1.62-1.54,1.62-1.59-.72-1.59-1.62Z"/>
  <path class="cls-1" d="M324.88,15.33c0-3.81,2.44-6.66,6-6.66,3.8,0,5.86,2.19,5.86,6.15s-2.49,6.66-6.09,6.66-5.77-2.22-5.77-6.15ZM334.48,15.27c0-3.51-1.48-5.76-3.89-5.76-1.97,0-3.51,2.25-3.51,5.34,0,3.57,1.51,5.85,3.92,5.85,1.97,0,3.48-2.31,3.48-5.43Z"/>
  <path class="cls-1" d="M348.43,12.03c0-5.79,3.71-9.96,9.95-9.96,2.09,0,4.06.63,5.31,1.08.06,1.5.2,3.6.38,5.22.03.27-.32.3-.38.09-.87-3.6-2.67-5.52-5.74-5.52-4.32,0-6.96,3.6-6.96,8.43,0,5.49,2.44,9.27,7.48,9.27,2.93,0,4.76-1.44,5.63-5.67.06-.21.41-.18.41.09v.06c-.17,1.44-.29,3.48-.35,5.13-1.36.6-3.42,1.23-6.18,1.23-6.67,0-9.54-3.57-9.54-9.45Z"/>
  <path class="cls-1" d="M382.08,15.54v.06c-.26,1.68-.46,3.96-.64,5.67-5.34-.12-10.09-.09-13.49,0-.06,0-.12-.12-.12-.21s.03-.15.06-.15c2.06-.3,2.23-.54,2.23-4.2V6.84c0-3.69-.17-3.9-2.23-4.2-.03,0-.06-.06-.06-.15s.06-.21.12-.21c2.12.15,4.41.15,6.7,0,.12,0,.17.33.06.36-2.2.3-2.41.51-2.41,4.2v9.87c0,3.06.52,3.69,3.05,3.69,4.03,0,5.28-1.38,6.35-4.89.03-.21.38-.18.38.03Z"/>
  <path class="cls-1" d="M392.03,21.03c0,.12-.06.24-.12.24-2.21-.18-4.73-.18-6.93,0-.06,0-.12-.15-.12-.24,0-.06,0-.12.06-.12,2.18-.3,2.44-.57,2.44-4.2V6.87c0-3.69-.26-3.93-2.44-4.23-.06,0-.09-.06-.09-.15s.06-.21.15-.21c2.2.18,4.73.18,6.93,0,.06,0,.12.15.12.24,0,.06,0,.12-.06.12-2.2.3-2.46.54-2.46,4.23v9.84c0,3.63.26,3.9,2.46,4.2.06,0,.06.06.06.12Z"/>
  <path class="cls-1" d="M406.77,7.59c0-2.82-1.83-4.65-4.64-4.65-.93,0-1.8.09-2.55.24-.06.9-.12,2.07-.12,3.66v9.87c0,3.63.23,3.84,3.13,4.2.12.03.06.36-.06.36-2.93-.21-5.37-.21-7.43,0-.06,0-.12-.12-.12-.21s.03-.15.06-.15c2.06-.3,2.23-.57,2.23-4.2V6.84c0-3.69-.17-3.9-2.23-4.2-.03,0-.06-.06-.06-.15s.06-.21.12-.21c3.74.09,6.15-.12,7.48-.12,4.5,0,6.67,1.65,6.67,5.1,0,3.72-3.19,6.24-8.76,5.7-.14,0-.14-.3,0-.3,3.95,0,6.27-2.01,6.27-5.07Z"/>
</svg>
