<svg xmlns="http://www.w3.org/2000/svg" viewBox="0 0 280.32 45.88">
  <path class="cls-1" d="M2.72,38.87c-.81,3.08,3.72,2.56,3.15,4.73-.19.71-.83,1.19-1.58,1.19-1.04,0-2.21-.79-2.29-2.69,0-.15-.26-.1-.31.06l-.55,2.81c.68.25,1.75.46,2.73.46,2.02,0,3.62-1.02,4.06-2.67.84-3.18-3.67-2.66-3.13-4.7.18-.67.8-1.06,1.53-1.06.92,0,1.74.75,1.86,2.19,0,.12.24.1.29-.06l.56-2.5c-.57-.12-1.52-.25-2.23-.25-1.94,0-3.68,1-4.07,2.5Z"/>
  <path class="cls-1" d="M13.22,36.64l.65-1.83c.03-.1-.02-.15-.09-.15-.04,0-.09.02-.12.04-.93.94-2.63,2.06-3.78,2.71-.05.02-.08.06-.09.1-.02.06,0,.12.07.12h1.04l-1.43,5.41c-.4,1.5.17,2.37,1.56,2.37,1.23,0,2.74-.9,3.36-1.85.13-.19-.01-.27-.04-.25-.53.35-1.1.54-1.68.54-.94,0-1.24-.52-.9-1.79l1.17-4.43h2.19c.46,0,.95-.46,1.2-1h-3.12Z"/>
  <path class="cls-1" d="M25.47,36.45c-.88.17-2.32.58-3.52,1.04-.07.04-.1.23,0,.23,1.15-.08,1.18.27.44,3.08l-.25.96-.43,1.56c-.96.42-1.78.67-2.51.67-.9,0-1.21-.71-.79-2.29l.23-.87c.38-1.44.94-3.25,1.27-4.1.07-.19.06-.29-.07-.29-.02,0-.04,0-.15.02-.88.17-2.32.58-3.5,1.04-.03.02-.06.06-.07.1-.02.06-.01.12.03.12,1.15-.08,1.2.27.46,3.08l-.45,1.71c-.5,1.89.13,2.91,1.73,2.91,1.02,0,2.49-.75,3.79-1.64-.14.46-.33,1.08-.47,1.46-.05.12-.03.19.05.19.02,0,.04,0,.11-.02,1.11-.27,2.32-.5,3.42-.71.05-.02.06-.06.07-.1.02-.06,0-.1-.06-.1-1.07.02-1.25-.31-.57-2.89l.2-.77c.38-1.44.94-3.25,1.27-4.1.08-.21.04-.29-.07-.29-.02,0-.04,0-.15.02Z"/>
  <path class="cls-1" d="M34.57,41.59l1.8-6.81c.38-1.46.96-3.25,1.29-4.1.1-.21.06-.29-.07-.29-.04,0-.15.02-.24.04-.81.17-2.41.54-3.61,1.04-.09.04-.09.19,0,.19,1.21-.08,1.34.29.6,3.1l-.5,1.89c-.45-.19-1.01-.29-1.55-.29-2.94,0-5.42,2-6.16,4.81-.67,2.54.25,4.25,2.36,4.25,1.12,0,2.49-.67,3.54-1.67-.15.48-.33,1.1-.47,1.48-.05.12-.05.19.03.19.04,0,.08,0,.13-.02,1.11-.27,2.32-.5,3.42-.71.05-.02.05-.04.06-.08.02-.06.01-.12-.03-.12-1.09.02-1.27-.31-.59-2.89ZM32.48,41.76l-.42,1.52c-.72.44-1.47.69-2.1.69-1.42,0-1.96-1.27-1.42-3.29.57-2.17,1.95-3.69,3.41-3.69.6,0,1.2.27,1.59.77l-1.05,4Z"/>
  <path class="cls-1" d="M41.13,31.39c-.83,0-1.62.6-1.82,1.37-.21.81.25,1.42,1.08,1.42.77,0,1.55-.6,1.77-1.42.2-.77-.26-1.37-1.03-1.37Z"/>
  <path class="cls-1" d="M40.8,36.45c-.88.17-2.32.58-3.5,1.04-.05.02-.06.08-.07.1-.02.06-.01.12.05.12,1.13-.08,1.2.27.46,3.08l-.3,1.15c-.71,2.71-.86,2.85-2.11,3.04-.05.02-.06.06-.06.08-.03.1,0,.17.04.17,1.55-.12,3.07-.12,4.56,0,.04,0,.1-.06.12-.15.01-.04.02-.08-.01-.1-1.16-.19-1.22-.33-.51-3.04l.3-1.12c.38-1.44.94-3.25,1.27-4.1.09-.25.04-.31-.22-.27Z"/>
  <path class="cls-1" d="M47.48,36.37c-2.75,0-5.17,2-5.89,4.73-.74,2.79.38,4.33,3.34,4.33,2.77,0,5.21-1.98,5.93-4.73.74-2.79-.42-4.33-3.38-4.33ZM48.46,41.03c-.59,2.23-1.92,3.79-3.12,3.79-1.5,0-2.02-1.58-1.36-4.08.58-2.21,1.88-3.75,3.11-3.75,1.5,0,2.03,1.56,1.37,4.04Z"/>
  <path class="cls-1" d="M68.17,40.76c.04-.15-.2-.19-.28-.04-1.33,2.75-3.18,4.08-5.26,4.08-3.21,0-4.2-2.64-3.18-6.52.87-3.29,3.3-5.81,6.03-5.81,2.21,0,3.21,1.67,3.2,3.98,0,.15.26.12.29-.08.18-1.23.49-2.79.72-3.85-.9-.31-2.27-.71-3.71-.71-4.56,0-8.18,2.91-9.27,7.02-1.1,4.18.47,6.6,5.32,6.6,1.92,0,3.62-.4,4.83-.85.36-1.15.83-2.6,1.22-3.6.06-.15.06-.17.08-.21Z"/>
  <path class="cls-1" d="M79.76,41.01c.04-.17-.2-.19-.28-.04-1.27,2.27-2.86,3.66-5.42,3.66-1.75,0-2.01-.52-1.4-2.83l1.69-6.39c.73-2.77.94-2.91,2.52-3.14.09-.02.11-.27,0-.27-1.86.1-3.73.1-5.42,0-.04,0-.11.08-.12.15-.02.06,0,.1.03.12,1.31.23,1.42.38.69,3.14l-1.69,6.39c-.74,2.79-.93,2.96-2.36,3.19-.05.02-.08.06-.09.1-.02.08,0,.15.04.15,2.75-.06,6.31-.08,10.25,0,.42-1.29,1.02-2.94,1.49-4.06.05-.12.06-.15.06-.17Z"/>
  <path class="cls-1" d="M84.24,41.8l1.68-6.37c.73-2.77.98-2.94,2.54-3.16.05-.02.06-.06.07-.1.02-.06,0-.17-.04-.17-1.85.12-3.84.12-5.64,0-.04,0-.1.08-.12.15-.02.06-.03.1,0,.12,1.46.23,1.62.4.89,3.16l-1.68,6.37c-.73,2.77-.99,2.96-2.57,3.19-.04,0-.06.06-.07.1-.02.06,0,.15.04.15,1.87-.12,3.84-.12,5.64,0,.04,0,.1-.06.12-.15.01-.04.02-.08-.01-.1-1.44-.23-1.6-.42-.87-3.19Z"/>
  <path class="cls-1" d="M95.26,31.93c-1.1,0-2.95.15-5.89.06-.04,0-.11.08-.12.15-.02.06-.01.12.03.12,1.31.23,1.42.38.69,3.14l-1.69,6.39c-.73,2.77-.93,2.96-2.36,3.19-.07.02-.08.08-.09.1-.02.08,0,.15.04.15,1.7-.12,3.66-.12,5.96,0,.08,0,.19-.23.11-.25-1.95-.27-2.1-.42-1.37-3.19l1.69-6.39c.33-1.27.6-2.12.81-2.75.51-.1,1.04-.17,1.58-.17,1.83,0,2.62,1.27,2.1,3.27-.54,2.04-2.35,3.48-4.83,3.48-.12,0-.18.21-.06.23,3.9.38,6.82-1.39,7.51-3.98.65-2.46-.64-3.56-4.1-3.56Z"/>
  <path class="cls-1" d="M119.37,34.95c-.24-.04-.37.21-.17.31.85.48,1.57,1.71,1.66,2.46.09.54-.19.79-.86.98-.65.17-1.61.42-2.48.73-.19.08-.24.27-.02.23,1.49-.29,2.44-.08,3.12.27.64.33,1.85,0,2.18-1.23.47-1.77-1.23-3.31-3.43-3.75Z"/>
  <path class="cls-1" d="M114.12,34.79h-.15l.39-.52c.33-.46.78-.81.92-1.29.28-1-.95-1.52-2.31-1.52-.23,0-.31.17-.16.29.62.5.73,1.27.34,2.04-.21.4-.44.81-.72,1.23-1.24.29-2.54.71-3.81.71-.35,0-1.09-.15-1.38-.52-.13-.12-.24-.12-.3.1-.31,1.19.59,2.83,1.82,2.33.77-.31,1.78-1,2.88-1.52-1.63,2.08-3.86,4.06-5.61,5.14-1.34.83-.69,3.27.76,1.87,2.22-2.1,4.81-5.27,6.58-7.56.11-.02.3-.04.45-.04.73,0,.93.27.58,1.6-.6,2.12-2.67,5.23-3.69,5.23-.56,0-.88-.31-1.33-.81-.18-.12-.36.02-.29.23.15.38.24.92.23,1.44,0,.69-.36,1.46.8,1.46,2.48,0,4.71-4.21,5.5-7.68.32-1.52-.16-2.23-1.5-2.21Z"/>
  <path class="cls-1" d="M122.97,31.56c-.23,0-.3.19-.11.27.44.23.8.83.86,1.48.06.79,1.26.52,1.46-.23.03-.1.04-.23.02-.37-.11-.75-.91-1.15-2.22-1.15Z"/>
  <path class="cls-1" d="M120.98,32.62c-.23,0-.3.19-.11.27.44.23.8.85.86,1.48.09.94,1.64.42,1.47-.6-.11-.75-.91-1.15-2.22-1.15Z"/>
  <path class="cls-1" d="M139.83,33.31c-.06,0-.13.02-.18.04-.81.37-1.48.65-7.74.92-.55.02-1.25-.31-1.5-.73-.15-.23-.31-.23-.49.1-.45.92.39,2.62,1.69,2.35,2.5-.54,6.33-.71,7.16-.71.23,0,.3.06.22.27-.5,1.44-1.53,3.83-2.31,5.52-1.98.31-5.02.56-7.06.56-.77,0-1.37-.33-1.63-.71-.17-.23-.31-.25-.49.12-.04.06-.05.12-.07.19v.04c-.24.87.54,2.19,1.54,2.19.1,0,.19-.02.3-.04,3.2-.85,7.05-.98,8.67-.56.74.19,1.23-.02,1.41-.69.09-.35-.54-.87-1.1-1.12.92-1.69,2.06-3.77,2.68-4.93.28-.52.84-.58.97-1.08.19-.71-1.38-1.73-2.09-1.73Z"/>
  <path class="cls-1" d="M159.31,33.93c-.82.42-2.23.79-6.88,1.12-.61.04-1.33-.33-1.66-.75-.17-.23-.31-.23-.52.08-.56.87.64,2.48,1.76,2.25,2.07-.42,5.14-.94,6.08-.94.21,0,.31.1.13.46-2.47,5.02-6.45,7.95-10.85,9.14-.14.04-.17.1-.2.19-.03.1.01.19.12.19l.23-.02c4.82-.67,9.37-2.91,12.48-8.7.28-.5.95-.58,1.08-1.1.24-.9-1.11-2.25-1.79-1.92Z"/>
  <path class="cls-1" d="M158.2,30.69c-1.46.73-3.27,1.02-4.79.54-.44-.15-.67.08-.43.54.34.69,1.11,1.17,1.86,1.17,1.08,0,2.96-.17,4.2-.44.55-.12.94-.23,1.02-.54.15-.56-1.01-1.31-1.63-1.31-.06,0-.12,0-.22.04Z"/>
  <path class="cls-1" d="M181.82,29.89c-.23,0-.3.19-.11.27.44.23.8.83.86,1.48.06.79,1.26.52,1.46-.23.03-.12.04-.25.02-.37-.11-.75-.91-1.15-2.22-1.15Z"/>
  <path class="cls-1" d="M179.72,31.23c.44.23.8.85.86,1.48.09.94,1.64.42,1.47-.6-.12-.75-.91-1.15-2.22-1.15-.23,0-.3.19-.11.27Z"/>
  <path class="cls-1" d="M180.79,34.29c-.95.38-2.13.58-3.88.73.18-.6.39-1.23.59-1.83.16-.44.48-.65.58-1.02.23-.85-1.8-1.85-2.9-1.42-.37.15-.4.33-.1.46.47.19.77.65.68,1.23-.1.6-.29,1.58-.56,2.69-1.15.08-2.51.12-4.16.21-.72.04-1.22-.19-1.58-.65-.18-.25-.39-.25-.53.27-.26.98.76,2.08,1.8,1.87,1.31-.29,2.74-.5,4.23-.62-.49,2.02-1.05,4.23-1.46,5.52-.13.42-.32.58-.67.58-.42,0-1.41-.19-1.83-.31-.19-.06-.31.15-.15.25.76.44,1.32,1,1.37,1.92,0,.31.32.46.73.46.77,0,1.9-.56,2.12-1.79.41-2.35.88-4.54,1.52-6.72,1.69-.08,3.46-.08,5.27,0,.43.02.78-.19.86-.5.15-.56-1.37-1.52-1.92-1.31Z"/>
  <path class="cls-1" d="M171.29,38.33c-.7,1.17-1.68,1.87-2.91,2.27-1.81.56-1.32,3.02.66,1.85,1.25-.73,2.23-2.44,2.51-4.08.03-.21-.14-.25-.26-.04Z"/>
  <path class="cls-1" d="M177.54,38.08c-.18-.02-.3.19-.13.27.95.44,1.41,1.46,1.34,2.96-.07,1.6,2.36,1.15,2.25-.65-.09-1.39-1.41-2.39-3.46-2.58Z"/>
  <path class="cls-1" d="M203.82,34.52c-3,3.02-7.72,6.12-11.49,7.54-.53.21-.78.04-.66-.42.29-1.1,1.49-5.1,2.08-6.95.13-.42.61-.65.71-1.04.15-.56-1.22-1.37-2.37-1.37-.25,0-.46.02-.67.1-.21.08-.31.17-.34.25-.03.1.05.19.23.25.49.21.88.69.74,1.29-.64,2.73-1.86,6.97-2.38,8.31-.27.71.74,1.77,1.47,1.77.44,0,.79-.08,1.3-.33,4.35-2.12,8.96-5.7,11.71-9.1.06-.08.1-.15.12-.21.07-.25-.18-.35-.46-.08Z"/>
  <path class="cls-1" d="M221.72,36.83c-.94,0-5.13.5-11.16.6-.69.02-1.28-.29-1.6-.73-.08-.1-.14-.17-.23-.17s-.17.1-.29.31c-.04.06-.1.21-.11.27-.26.98.75,2.06,1.83,2.06.04,0,.1,0,.26-.02,3.59-.56,8.35-.56,11.4-.56.79,0,1.36-.27,1.48-.71.13-.5-.7-1.06-1.57-1.06Z"/>
  <path class="cls-1" d="M236.45,36.04c.4-1.44.79-2.75,1.11-3.66.12-.38.62-.62.73-1.02.18-.69-1.26-1.48-2.44-1.48-.19,0-.36.02-.52.06-.18.04-.28.12-.3.19-.02.08.04.17.17.23.41.19.61.6.53,1.39-.34,3.12-2.41,9.54-3.44,12.41-.35.94.19,1.73.81,1.73.46,0,.98-.42,1.24-1.54.38-1.58,1.19-4.91,1.99-7.85,1.49.35,2.06,1.33,2.34,2.35.33,1.27,2,.79,2.28-.29.08-.29.04-.65-.15-1-.47-.83-2.04-1.35-4.35-1.52Z"/>
  <path class="cls-1" d="M7.23,9.24c.95-.35,1.92-.87,2.81-1.48-.27,1.02-.54,1.96-.73,2.6-.07.25.19.4.54.4.48,0,1.15-.27,1.28-.81.17-.71.44-1.89.76-3.1.21.29.39.67.47,1,.05.21.21.29.4.29.52,0,1.31-.56,1.14-1.23-.11-.44-.83-.71-1.88-.62l.18-.69h1.92c.27,0,.32-.1.24-.35-.21-.62-.69-1.27-.85-1.27s-.8.67-1.09,1.15h-.08c.15-.56.27-1.04.39-1.39.71-.31.85-.62.44-.81-.39-.17-1.25-.4-1.85-.48-.11.65-.32,1.62-.58,2.69-.68-.02-1.33-.02-1.88-.06.26-.98.62-2.41.83-3.06.14-.04.25-.08.35-.12h10.56c.29,0,.37-.12.24-.37-.26-.75-1.04-1.5-1.29-1.5-.23,0-1.25.81-1.66,1.39h-7.6c-.03-.06-.09-.12-.18-.19-.42-.31-1.31-.65-2.1-.81-.27,1.42-.85,3.77-1.22,5.16-.98,3.73-3.42,7.27-6.66,9.7-.05.04-.08.08-.1.12-.03.12.09.23.25.17,3.05-1.31,5.44-3.66,6.98-6.31ZM8.69,5.66l.04-.15c.12.1.29.17.43.17.27,0,.8-.02,1.32-.04-.76,1-1.76,2.08-2.93,2.98.51-.98.89-1.96,1.13-2.96Z"/>
  <path class="cls-1" d="M10.65,11.91c-.39-.19-1.41-.42-2.06-.5-.12,1-.59,2.96-.86,3.96-1.45-.02-2.73-.06-3.82-.12-.09.35.29.73.6.73.83,0,3.18-.12,4.24-.12h9.91c.29,0,.35-.12.24-.38-.28-.69-1.04-1.42-1.29-1.42-.21,0-1.18.75-1.57,1.31h-3.33c.15-.67.4-1.6.62-2.44h3.56c.27,0,.35-.12.24-.35-.25-.65-.91-1.35-1.14-1.35-.21,0-1.06.71-1.41,1.23h-1.12c.13-.5.25-.96.35-1.23.4-.19.61-.35.66-.52.04-.15-.03-.27-.26-.37-.41-.19-1.41-.42-2.08-.5-.19,1.29-.9,4.18-1.27,5.54h-1.27c.2-.85.5-2.06.68-2.56.69-.33.88-.67.38-.9Z"/>
  <path class="cls-1" d="M17.85,5.48h2.69c.27,0,.32-.12.24-.35-.26-.67-.88-1.33-1.09-1.33-.19,0-.99.69-1.34,1.21h-.42c.14-.54.27-1.02.38-1.35.71-.31.85-.6.44-.81-.39-.17-1.25-.4-1.85-.48-.1.62-.31,1.58-.57,2.64-.7-.02-1.36-.04-1.92-.08-.09.33.31.65.62.65.23,0,.63-.02,1.05-.04-1.14,1.31-2.66,2.67-4.39,3.69-.15.08-.06.31.12.25,1.28-.44,2.64-1.1,3.85-1.89-.28,1.06-.56,2.04-.76,2.71-.07.25.19.4.54.4.5,0,1.15-.27,1.28-.81.17-.79.51-2.19.84-3.5.26.92.56,1.73.94,2.35.31.48.83,1.1,1.29,1.1.21,0,.39-.15.66-.37.37-.31.9-.73,1.84-1.12.07-.02.11-.08.12-.12.02-.08,0-.15-.11-.15-1.92-.23-3.52-1.19-4.47-2.56Z"/>
  <path class="cls-1" d="M30.96,7.16c.54-.08,1.84-.33,2.82-.52-.48,7.74,2.13,10.24,4.32,10.24.94,0,1.64-.37,1.83-1.1.08-.31.08-.4-.12-.98-.16-.33-.09-.75,1.28-4.21.1-.21-.25-.25-.36-.06-.47,1.06-1.19,2.46-1.65,3.25-.28.44-.62.71-.9.71-1.14.06-2.83-2.52-2.49-8.16l6.03-.92c.28-.04.34-.17.19-.4-.43-.65-1.32-1.25-1.58-1.21-.24.04-1.15.96-1.46,1.58l-3.15.48c.09-1.29.29-2.75.63-4.35.68-.21.88-.48.44-.79-.42-.29-1.4-.54-2.25-.65,0,.48-.02,1.02-.09,1.37-.34,1.75-.54,3.31-.64,4.71-1.39.21-2.57.35-3.59.44-.04.31.4.6.73.56Z"/>
  <path class="cls-1" d="M38.3,3.25c.11,1.08,2.34.44,2.22-1-.09-.69-1.43-1.37-3-1.5-.18-.02-.29.15-.18.27.56.56.88,1.5.95,2.23Z"/>
  <path class="cls-1" d="M27.37,15.63c.46-2,1.75-7.18,2.25-8.85.7-.29.86-.58.43-.83-.22-.12-.51-.27-.86-.38,1.22-1.17,2.33-2.37,3.24-3.58.86.04,1.07-.27.69-.65-.31-.31-1.2-.81-1.84-1.06-2.34,3.75-5.38,7.14-9,9.89-.05.04-.06.08-.08.12-.03.12.08.25.25.17,1.8-.98,3.53-2.19,5.12-3.48-.63,2.79-1.78,7.2-2.4,9.16-.24.77,1.95.65,2.2-.52Z"/>
  <path class="cls-1" d="M61.08,6.41c.45.02.88-.1,1.01-.58.14-.54-1.4-1.4-2.1-1.12-.51.19-1.52.4-2.9.56.24-.83.52-1.83.7-2.35.16-.44.49-.5.58-.85.15-.56-1.26-1.29-2.33-1.29-.19,0-.34.02-.5.06-.36.1-.39.29-.11.42.37.17.54.54.48,1.02-.05.42-.4,2.08-.66,3.21l-2.38.19c.16-.6.29-1.1.38-1.37.12-.37.41-.52.48-.81.16-.6-1.64-1.44-2.72-1.06-.35.12-.43.29-.12.44.37.17.6.58.52,1.1-.05.42-.2,1.06-.37,1.81-1,.06-2.03.1-3.1.12-.82.02-1.46-.38-1.65-.83-.09-.21-.24-.21-.41.12-.04.08-.06.15-.08.23-.25.94.7,2.23,1.88,2.02,1.01-.19,2.02-.33,3.06-.48-.24.9-.47,1.77-.65,2.39-.44,1.5,1.43,1.83,1.76.44.14-.62.43-1.87.74-3.04.77-.08,1.56-.15,2.36-.19-1.42,5.08-3.59,7.62-8.15,9.26-.37.12-.33.48-.06.48l.09-.02c5.89-1.5,8.22-3.85,9.92-9.83,1.45-.06,2.9-.08,4.3-.04Z"/>
  <path class="cls-1" d="M67.96,15.07c.56,0,1.19-.19,1.99-.6,3.59-1.83,8.65-5.95,11.68-9.54.06-.06.1-.12.11-.19.05-.19-.18-.25-.43-.02-3.47,3.06-8.45,6.31-12.18,7.95-1.08.48-2.03.29-2.26-.44-.08-.25-.27-.25-.43.06-.59,1.04.29,2.77,1.52,2.77Z"/>
  <path class="cls-1" d="M68.24,3.87c.91.33,1.54,1.1,1.74,2.1.27,1.27,2.69.4,2.12-1.23-.27-.79-1.48-1.19-2.89-1.19-.27,0-.69.02-.82.04-.15.02-.19.08-.21.15-.02.06.01.1.07.12Z"/>
  <path class="cls-1" d="M92.5,9.12c.42-1.75.88-3.64,1.25-4.75.13-.42.54-.65.65-1.04.22-.83-1.76-1.71-2.73-1.35-.18.06-.31.17-.34.25s.06.17.25.25c.39.17.56.65.46,1.25-.12.92-.87,3.46-1.29,4.87-.35,1.17,1.37,2.08,1.74.52Z"/>
  <path class="cls-1" d="M88.45,16.4s.15-.02.44-.1c4.74-1.31,7.42-3.48,8.56-7.83.75-2.83,1.15-4.37,1.45-5.18.11-.33.47-.58.55-.92.2-.77-1.2-1.54-2.26-1.54-.21,0-.38.02-.54.08-.47.19-.5.4-.15.5.48.15.64.56.52,1.19-.24,1.31-.88,3.89-1.37,5.75-1.04,3.93-3.4,6.27-7.21,7.49-.39.12-.17.56,0,.56Z"/>
  <path class="cls-1" d="M120.89,6.16c.46,0,.88-.17.98-.56.13-.48-1.32-1.46-1.93-1.23-.61.25-1.43.44-2.44.58.21-.81.4-1.52.56-1.98.18-.54.53-.75.63-1.12.15-.56-1.18-1.14-2.24-1.14-.23,0-.47.04-.67.1-.32.1-.34.27-.08.4.42.21.64.65.57,1.23-.02.46-.18,1.48-.42,2.71-1.67.17-3.65.25-5.78.29-.76.02-1.3-.21-1.54-.65-.1-.19-.23-.17-.37.06-.55.9.54,2.44,1.63,2.19,1.51-.35,3.26-.58,5.06-.71-2.8,3.41-6.66,6.29-10.64,7.66-.14.04-.23.15-.25.23-.04.15.04.25.24.21,3.67-.71,7.87-2.98,10.95-6-.38,1.77-.8,3.5-1.1,4.58-.12.46-.26.52-.6.46-.55-.12-1.58-.4-2.18-.56-.25-.08-.4.17-.21.31,1.05.77,1.62,1.44,1.74,2.33.04.31.3.44.66.44.79,0,2.01-.69,2.17-1.75.26-1.54.95-5.18,1.6-8.04,1.26-.04,2.5-.06,3.68-.04Z"/>
  <path class="cls-1" d="M139.98,6.43c-1.11.5-2.65.98-4.51,1.4l.33-2.44c1.19-.25,2.41-.44,3.48-.54.51-.04.88-.27.95-.69.06-.48-1.71-.94-2.17-.71-.5.25-1.22.5-2.07.75.07-.42.14-.83.22-1.23s.28-.67.38-1.04c.14-.54-1.04-1.21-2.18-1.21-.29,0-.57.04-.85.15-.3.12-.36.33-.09.44.58.23.93.56.93,1.29,0,.67-.04,1.33-.09,2-.84.19-1.75.31-2.65.42-.64.06-1.17-.08-1.45-.42-.17-.21-.31-.17-.41.12-.31.87.61,2.04,1.74,1.71.77-.23,1.69-.48,2.69-.71-.07.83-.14,1.65-.25,2.44-1.47.29-3.09.56-4.79.79-.58.08-1.11-.06-1.35-.4-.15-.21-.29-.17-.4.1l-.03.12c-.21.81.56,2.14,1.64,1.83,1.33-.38,3.03-.81,4.78-1.21-.32,2.25-.72,4.25-1.03,5.73-.15.71.35,1.12.89,1.12s1.1-.4,1.17-1.29c.09-1.54.25-3.64.49-5.89,2.14-.46,4.27-.87,5.83-1.1.47-.06.83-.29.92-.65l.02-.06c.08-.46-1.62-1.06-2.11-.83Z"/>
  <path class="cls-1" d="M150.08,10.99c.66-.27,1.46-.54,2.29-.79-.08,2.21-.29,4.41-.5,5.6-.1.52.39.87.89.87.44,0,.87-.29.83-1.02-.08-1.52-.06-3.71.14-5.83,1.3-.33,2.51-.58,3.17-.65.08,0,.1.08.04.15-.61.65-1.74,1.62-2.92,2.54-.18.15-.08.29.15.21,1.13-.5,2.95-1.31,3.72-1.71.61-.33,1.19-.31,1.3-.73.24-.9-1.18-2.08-1.64-1.85-.76.35-1.91.69-3.74,1.08.04-.4.1-.79.16-1.17.02-.25.25-.65.3-.98.03-.44-.92-.77-1.69-.77-.27,0-.51.04-.68.12-.3.19-.29.31,0,.37.43.12.48.46.49,1,0,.54,0,1.12-.01,1.71-.73.15-1.53.29-2.45.46-.46.08-.86-.21-1.19-.56-.12-.17-.29-.17-.39.21-.24.9.95,2.02,1.71,1.73Z"/>
  <path class="cls-1" d="M174.92,3.44c1.08,0,2.96-.17,4.2-.44.55-.12.94-.23,1.02-.54.15-.56-1.01-1.31-1.63-1.31-.06,0-.12,0-.22.04-1.46.73-3.27,1.02-4.79.54-.44-.15-.67.08-.43.54.34.69,1.11,1.17,1.86,1.17Z"/>
  <path class="cls-1" d="M167.37,16.18l.23-.02c4.82-.67,9.37-2.91,12.48-8.7.28-.5.94-.58,1.08-1.1.24-.9-1.12-2.25-1.79-1.92-.82.42-2.23.79-6.88,1.12-.61.04-1.33-.33-1.66-.75-.17-.23-.31-.23-.52.08-.56.87.64,2.48,1.76,2.25,2.07-.42,5.14-.94,6.08-.94.21,0,.31.1.13.46-2.47,5.02-6.45,7.95-10.85,9.14-.14.04-.17.1-.2.19-.03.1.01.19.12.19Z"/>
  <path class="cls-1" d="M200.67,6.16c.33-.4.85-.46.95-.85.18-.69-1.03-1.87-1.54-1.6s-1.03.42-2.95.67c.29-.29.58-.6.87-.94.44-.5,1-.65,1.14-1.02.25-.71-1.04-1.64-2.13-1.64-.17,0-.34.02-.5.08-.32.1-.36.25-.1.37.54.25.56.73.14,1.29-1.89,2.52-5.09,5.41-7.66,6.91-.39.23-.31.56.08.4,2.51-1,4.98-2.52,7.2-4.54,1.11-.17,2.4-.33,2.73-.33.31,0,.35.1.12.4-4.15,5.31-8.34,8.72-12.53,9.74-.18.04-.27.15-.31.23-.03.1.03.21.19.21h.04c5.69-.79,9.75-4.04,14.22-9.37Z"/>
  <path class="cls-1" d="M217.25,11.01c.22,1.37,2.51.58,2.09-1.15-.1-.42-.4-.83-.81-1.21.81-.85,1.64-1.79,2.51-2.79.33-.4.85-.46.95-.85.18-.69-1.03-1.87-1.53-1.6-.51.27-.98.42-2.73.65.2-.21.4-.42.58-.62.44-.5,1-.65,1.14-1.02.25-.71-1.04-1.64-2.13-1.64-.17,0-.34.02-.52.08-.3.1-.34.25-.08.37.54.25.56.73.14,1.29-1.89,2.52-5.09,5.41-7.66,6.91-.39.23-.31.56.08.4,2.63-1.06,5.25-2.69,7.55-4.87,1.04-.17,2.14-.29,2.45-.29s.39.1.17.4c-.76.98-1.5,1.92-2.27,2.77-.74-.35-1.62-.58-2.5-.62-.22-.02-.32.27-.15.33.67.29,1.26.75,1.72,1.31-3.12,3.31-6.32,5.48-9.44,6.25-.18.04-.27.15-.31.23-.03.1.03.21.19.21.02,0,.06,0,.19-.02,3.9-.58,6.98-2.39,10.12-5.35.12.27.19.56.23.85Z"/>
  <path class="cls-1" d="M241.8,7.33c-.94,0-5.13.5-11.16.6-.69.02-1.28-.29-1.6-.73-.08-.1-.14-.17-.23-.17s-.17.1-.29.31c-.04.06-.1.21-.11.27-.26.98.75,2.06,1.83,2.06.04,0,.1,0,.26-.02,3.59-.56,8.35-.56,11.4-.56.79,0,1.36-.27,1.48-.71.13-.5-.7-1.06-1.57-1.06Z"/>
  <path class="cls-1" d="M263.7.19c-.23,0-.3.19-.11.27.44.23.8.83.86,1.48.06.79,1.26.52,1.46-.23.03-.12.04-.23.02-.38-.11-.75-.91-1.14-2.22-1.14Z"/>
  <path class="cls-1" d="M259.51,3.5c-.81.46-1.49.6-4.54.87-.73.06-1.48-.15-1.72-.6-.09-.21-.3-.21-.44.1-.38.81.45,2.56,1.66,2.25,2.1-.6,3.34-.9,3.88-.9.25,0,.31.1.11.38-3.6,4.89-7.39,7.47-11.57,8.87-.16.06-.24.12-.29.23v.04c-.03.08.07.17.15.17.02,0,.04,0,.13-.02,3.67-.71,6.87-2.19,9.92-4.91,1.03.67,1.62,1.92,1.69,3.62.06,1.69,2.56,1.1,2.44-.81-.07-1.54-1.9-2.89-3.75-3.16,1.08-1,2.11-2.17,3.15-3.5.38-.5.98-.54,1.1-1,.17-.65-1.41-1.92-1.93-1.62Z"/>
  <path class="cls-1" d="M261.71,1.25c-.23,0-.3.19-.11.27.44.23.8.85.86,1.48.09.94,1.64.42,1.47-.6-.11-.75-.91-1.15-2.22-1.15Z"/>
  <path class="cls-1" d="M278.69,7.37c-.68.35-1.39.69-2.1,1.02-.8-.06-.99-.58-.69-1.71.46-1.73,1.83-2.91,2.08-3.85.25-.96-.96-1.75-2.45-1.85h-.04c-.21,0-.29.15-.14.29.4.37.59,1.15.38,2.12-.23,1.12-.57,2.33-.83,3.29-.31,1.17-.05,1.94.6,2.21-2.19,1.04-4.2,2.19-4.67,3.96-.58,2.19,1.1,3.27,4.01,3.27,1,0,2.14-.12,3.37-.38,1.01-.21,1.45-.6,1.56-1.02.18-.69-.58-1.44-1.14-1.27-4.58,1.27-7.2.85-6.75-.85.4-1.52,2.84-2.71,6.36-3.12,1.16-.12,1.93-.37,2.07-.9.19-.71-1.23-1.42-1.62-1.21Z"/>
</svg>
